<mxfile host="app.diagrams.net" modified="2023-12-07T11:08:55.663Z" agent="Mozilla/5.0 (Windows NT 10.0; Win64; x64) AppleWebKit/537.36 (KHTML, like Gecko) Chrome/119.0.0.0 Safari/537.36" etag="0s0_GA8lpGZ6BM3wCR9M" version="22.1.7" type="github">
  <diagram name="Pagina-1" id="kXx2UTYAI2pcR2kXlayg">
    <mxGraphModel dx="1720" dy="1600" grid="1" gridSize="10" guides="1" tooltips="1" connect="1" arrows="1" fold="1" page="1" pageScale="1" pageWidth="827" pageHeight="1169" math="0" shadow="0">
      <root>
        <mxCell id="0" />
        <mxCell id="1" parent="0" />
        <mxCell id="2i5CHcdiQAOYQLzf8pTI-1" value="" style="childLayout=tableLayout;recursiveResize=0;shadow=0;strokeColor=#E6E6E6;align=center;" parent="1" vertex="1">
          <mxGeometry x="-460" y="-20" width="841" height="437" as="geometry" />
        </mxCell>
        <mxCell id="2i5CHcdiQAOYQLzf8pTI-2" value="" style="shape=tableRow;horizontal=0;startSize=0;swimlaneHead=0;swimlaneBody=0;top=0;left=0;bottom=0;right=0;dropTarget=0;collapsible=0;recursiveResize=0;expand=0;fontStyle=0;fillColor=none;strokeColor=inherit;align=center;" parent="2i5CHcdiQAOYQLzf8pTI-1" vertex="1">
          <mxGeometry width="841" height="44" as="geometry" />
        </mxCell>
        <mxCell id="2i5CHcdiQAOYQLzf8pTI-3" value="&lt;span style=&quot;white-space: pre;&quot;&gt;&#x9;&lt;/span&gt;STEP" style="connectable=0;recursiveResize=0;strokeColor=inherit;fillColor=none;align=left;whiteSpace=wrap;html=1;fontStyle=1;labelPosition=center;verticalLabelPosition=middle;verticalAlign=middle;" parent="2i5CHcdiQAOYQLzf8pTI-2" vertex="1">
          <mxGeometry width="480" height="44" as="geometry">
            <mxRectangle width="480" height="44" as="alternateBounds" />
          </mxGeometry>
        </mxCell>
        <mxCell id="2i5CHcdiQAOYQLzf8pTI-4" value="&lt;span style=&quot;white-space: pre;&quot;&gt;&#x9;&lt;/span&gt;COST CALCULATION" style="connectable=0;recursiveResize=0;strokeColor=inherit;fillColor=none;align=center;whiteSpace=wrap;html=1;fontStyle=1" parent="2i5CHcdiQAOYQLzf8pTI-2" vertex="1">
          <mxGeometry x="480" width="200" height="44" as="geometry">
            <mxRectangle width="200" height="44" as="alternateBounds" />
          </mxGeometry>
        </mxCell>
        <mxCell id="2i5CHcdiQAOYQLzf8pTI-5" value="&lt;span style=&quot;white-space: pre;&quot;&gt;&#x9;&lt;/span&gt;STEP COST" style="connectable=0;recursiveResize=0;strokeColor=inherit;fillColor=none;align=center;whiteSpace=wrap;html=1;fontStyle=1" parent="2i5CHcdiQAOYQLzf8pTI-2" vertex="1">
          <mxGeometry x="680" width="161" height="44" as="geometry">
            <mxRectangle width="161" height="44" as="alternateBounds" />
          </mxGeometry>
        </mxCell>
        <mxCell id="2i5CHcdiQAOYQLzf8pTI-6" style="shape=tableRow;horizontal=0;startSize=0;swimlaneHead=0;swimlaneBody=0;top=0;left=0;bottom=0;right=0;dropTarget=0;collapsible=0;recursiveResize=0;expand=0;fontStyle=0;fillColor=none;strokeColor=inherit;align=center;" parent="2i5CHcdiQAOYQLzf8pTI-1" vertex="1">
          <mxGeometry y="44" width="841" height="41" as="geometry" />
        </mxCell>
        <mxCell id="2i5CHcdiQAOYQLzf8pTI-7" value="&lt;span style=&quot;white-space: pre;&quot;&gt;&#x9;&lt;/span&gt;1 USER open check data coverage window&amp;nbsp;" style="connectable=0;recursiveResize=0;strokeColor=inherit;fillColor=none;align=left;whiteSpace=wrap;html=1;labelPosition=center;verticalLabelPosition=middle;verticalAlign=middle;" parent="2i5CHcdiQAOYQLzf8pTI-6" vertex="1">
          <mxGeometry width="480" height="41" as="geometry">
            <mxRectangle width="480" height="41" as="alternateBounds" />
          </mxGeometry>
        </mxCell>
        <mxCell id="2i5CHcdiQAOYQLzf8pTI-8" value="1 x 1 x 1" style="connectable=0;recursiveResize=0;strokeColor=inherit;fillColor=none;align=center;whiteSpace=wrap;html=1;" parent="2i5CHcdiQAOYQLzf8pTI-6" vertex="1">
          <mxGeometry x="480" width="200" height="41" as="geometry">
            <mxRectangle width="200" height="41" as="alternateBounds" />
          </mxGeometry>
        </mxCell>
        <mxCell id="2i5CHcdiQAOYQLzf8pTI-9" value="1" style="connectable=0;recursiveResize=0;strokeColor=inherit;fillColor=none;align=center;whiteSpace=wrap;html=1;" parent="2i5CHcdiQAOYQLzf8pTI-6" vertex="1">
          <mxGeometry x="680" width="161" height="41" as="geometry">
            <mxRectangle width="161" height="41" as="alternateBounds" />
          </mxGeometry>
        </mxCell>
        <mxCell id="2i5CHcdiQAOYQLzf8pTI-10" style="shape=tableRow;horizontal=0;startSize=0;swimlaneHead=0;swimlaneBody=0;top=0;left=0;bottom=0;right=0;dropTarget=0;collapsible=0;recursiveResize=0;expand=0;fontStyle=0;fillColor=none;strokeColor=inherit;align=center;" parent="2i5CHcdiQAOYQLzf8pTI-1" vertex="1">
          <mxGeometry y="85" width="841" height="44" as="geometry" />
        </mxCell>
        <mxCell id="2i5CHcdiQAOYQLzf8pTI-11" value="&lt;span style=&quot;white-space: pre;&quot;&gt;&#x9;&lt;/span&gt;2&amp;nbsp;SYSTEM shows the radar and bubble plot with scaled distribution of the &lt;span style=&quot;white-space: pre;&quot;&gt;&#x9;&lt;/span&gt;observations of the dataset&amp;nbsp;" style="connectable=0;recursiveResize=0;strokeColor=inherit;fillColor=none;align=left;whiteSpace=wrap;html=1;labelPosition=center;verticalLabelPosition=middle;verticalAlign=middle;" parent="2i5CHcdiQAOYQLzf8pTI-10" vertex="1">
          <mxGeometry width="480" height="44" as="geometry">
            <mxRectangle width="480" height="44" as="alternateBounds" />
          </mxGeometry>
        </mxCell>
        <mxCell id="2i5CHcdiQAOYQLzf8pTI-12" value="" style="connectable=0;recursiveResize=0;strokeColor=inherit;fillColor=none;align=center;whiteSpace=wrap;html=1;" parent="2i5CHcdiQAOYQLzf8pTI-10" vertex="1">
          <mxGeometry x="480" width="200" height="44" as="geometry">
            <mxRectangle width="200" height="44" as="alternateBounds" />
          </mxGeometry>
        </mxCell>
        <mxCell id="2i5CHcdiQAOYQLzf8pTI-13" value="" style="connectable=0;recursiveResize=0;strokeColor=inherit;fillColor=none;align=center;whiteSpace=wrap;html=1;" parent="2i5CHcdiQAOYQLzf8pTI-10" vertex="1">
          <mxGeometry x="680" width="161" height="44" as="geometry">
            <mxRectangle width="161" height="44" as="alternateBounds" />
          </mxGeometry>
        </mxCell>
        <mxCell id="Rt8_4y5xu8FJh6YtNwSu-5" style="shape=tableRow;horizontal=0;startSize=0;swimlaneHead=0;swimlaneBody=0;top=0;left=0;bottom=0;right=0;dropTarget=0;collapsible=0;recursiveResize=0;expand=0;fontStyle=0;fillColor=none;strokeColor=inherit;align=center;" vertex="1" parent="2i5CHcdiQAOYQLzf8pTI-1">
          <mxGeometry y="129" width="841" height="44" as="geometry" />
        </mxCell>
        <mxCell id="Rt8_4y5xu8FJh6YtNwSu-6" value="&lt;span style=&quot;white-space: pre;&quot;&gt;&#x9;&lt;/span&gt;3 USER checks the features&#39; distribution" style="connectable=0;recursiveResize=0;strokeColor=inherit;fillColor=none;align=left;whiteSpace=wrap;html=1;labelPosition=center;verticalLabelPosition=middle;verticalAlign=middle;" vertex="1" parent="Rt8_4y5xu8FJh6YtNwSu-5">
          <mxGeometry width="480" height="44" as="geometry">
            <mxRectangle width="480" height="44" as="alternateBounds" />
          </mxGeometry>
        </mxCell>
        <mxCell id="Rt8_4y5xu8FJh6YtNwSu-7" value="1 x 4 x 1" style="connectable=0;recursiveResize=0;strokeColor=inherit;fillColor=none;align=center;whiteSpace=wrap;html=1;" vertex="1" parent="Rt8_4y5xu8FJh6YtNwSu-5">
          <mxGeometry x="480" width="200" height="44" as="geometry">
            <mxRectangle width="200" height="44" as="alternateBounds" />
          </mxGeometry>
        </mxCell>
        <mxCell id="Rt8_4y5xu8FJh6YtNwSu-8" value="4" style="connectable=0;recursiveResize=0;strokeColor=inherit;fillColor=none;align=center;whiteSpace=wrap;html=1;" vertex="1" parent="Rt8_4y5xu8FJh6YtNwSu-5">
          <mxGeometry x="680" width="161" height="44" as="geometry">
            <mxRectangle width="161" height="44" as="alternateBounds" />
          </mxGeometry>
        </mxCell>
        <mxCell id="2i5CHcdiQAOYQLzf8pTI-18" style="shape=tableRow;horizontal=0;startSize=0;swimlaneHead=0;swimlaneBody=0;top=0;left=0;bottom=0;right=0;dropTarget=0;collapsible=0;recursiveResize=0;expand=0;fontStyle=0;fillColor=none;strokeColor=inherit;align=center;" parent="2i5CHcdiQAOYQLzf8pTI-1" vertex="1">
          <mxGeometry y="173" width="841" height="44" as="geometry" />
        </mxCell>
        <mxCell id="2i5CHcdiQAOYQLzf8pTI-19" value="&lt;span style=&quot;white-space: pre;&quot;&gt;&#x9;&lt;/span&gt;3.2 IF distribution is not uniform" style="connectable=0;recursiveResize=0;strokeColor=inherit;fillColor=none;align=left;whiteSpace=wrap;html=1;labelPosition=center;verticalLabelPosition=middle;verticalAlign=middle;" parent="2i5CHcdiQAOYQLzf8pTI-18" vertex="1">
          <mxGeometry width="480" height="44" as="geometry">
            <mxRectangle width="480" height="44" as="alternateBounds" />
          </mxGeometry>
        </mxCell>
        <mxCell id="2i5CHcdiQAOYQLzf8pTI-20" value="0.67" style="connectable=0;recursiveResize=0;strokeColor=inherit;fillColor=none;align=center;whiteSpace=wrap;html=1;" parent="2i5CHcdiQAOYQLzf8pTI-18" vertex="1">
          <mxGeometry x="480" width="200" height="44" as="geometry">
            <mxRectangle width="200" height="44" as="alternateBounds" />
          </mxGeometry>
        </mxCell>
        <mxCell id="2i5CHcdiQAOYQLzf8pTI-21" value="" style="connectable=0;recursiveResize=0;strokeColor=inherit;fillColor=none;align=center;whiteSpace=wrap;html=1;" parent="2i5CHcdiQAOYQLzf8pTI-18" vertex="1">
          <mxGeometry x="680" width="161" height="44" as="geometry">
            <mxRectangle width="161" height="44" as="alternateBounds" />
          </mxGeometry>
        </mxCell>
        <mxCell id="2i5CHcdiQAOYQLzf8pTI-30" style="shape=tableRow;horizontal=0;startSize=0;swimlaneHead=0;swimlaneBody=0;top=0;left=0;bottom=0;right=0;dropTarget=0;collapsible=0;recursiveResize=0;expand=0;fontStyle=0;fillColor=none;strokeColor=inherit;align=center;" parent="2i5CHcdiQAOYQLzf8pTI-1" vertex="1">
          <mxGeometry y="217" width="841" height="44" as="geometry" />
        </mxCell>
        <mxCell id="2i5CHcdiQAOYQLzf8pTI-31" value="&#x9;&lt;span style=&quot;white-space: pre;&quot;&gt;&#x9;&lt;/span&gt;3.2.1 USER selects &quot;REFUSE&quot;" style="connectable=0;recursiveResize=0;strokeColor=inherit;fillColor=none;align=left;whiteSpace=wrap;html=1;labelPosition=center;verticalLabelPosition=middle;verticalAlign=middle;" parent="2i5CHcdiQAOYQLzf8pTI-30" vertex="1">
          <mxGeometry width="480" height="44" as="geometry">
            <mxRectangle width="480" height="44" as="alternateBounds" />
          </mxGeometry>
        </mxCell>
        <mxCell id="2i5CHcdiQAOYQLzf8pTI-32" value="&lt;span style=&quot;&quot;&gt;&lt;span style=&quot;white-space: pre;&quot;&gt;0.67&lt;/span&gt;&lt;/span&gt;&amp;nbsp;x 1 x 1" style="connectable=0;recursiveResize=0;strokeColor=inherit;fillColor=none;align=center;whiteSpace=wrap;html=1;" parent="2i5CHcdiQAOYQLzf8pTI-30" vertex="1">
          <mxGeometry x="480" width="200" height="44" as="geometry">
            <mxRectangle width="200" height="44" as="alternateBounds" />
          </mxGeometry>
        </mxCell>
        <mxCell id="2i5CHcdiQAOYQLzf8pTI-33" value="0.67" style="connectable=0;recursiveResize=0;strokeColor=inherit;fillColor=none;align=center;whiteSpace=wrap;html=1;" parent="2i5CHcdiQAOYQLzf8pTI-30" vertex="1">
          <mxGeometry x="680" width="161" height="44" as="geometry">
            <mxRectangle width="161" height="44" as="alternateBounds" />
          </mxGeometry>
        </mxCell>
        <mxCell id="Rt8_4y5xu8FJh6YtNwSu-9" style="shape=tableRow;horizontal=0;startSize=0;swimlaneHead=0;swimlaneBody=0;top=0;left=0;bottom=0;right=0;dropTarget=0;collapsible=0;recursiveResize=0;expand=0;fontStyle=0;fillColor=none;strokeColor=inherit;align=center;" vertex="1" parent="2i5CHcdiQAOYQLzf8pTI-1">
          <mxGeometry y="261" width="841" height="44" as="geometry" />
        </mxCell>
        <mxCell id="Rt8_4y5xu8FJh6YtNwSu-10" value="&lt;span style=&quot;white-space: pre;&quot;&gt;&#x9;&lt;/span&gt;3.3 ELSE" style="connectable=0;recursiveResize=0;strokeColor=inherit;fillColor=none;align=left;whiteSpace=wrap;html=1;labelPosition=center;verticalLabelPosition=middle;verticalAlign=middle;" vertex="1" parent="Rt8_4y5xu8FJh6YtNwSu-9">
          <mxGeometry width="480" height="44" as="geometry">
            <mxRectangle width="480" height="44" as="alternateBounds" />
          </mxGeometry>
        </mxCell>
        <mxCell id="Rt8_4y5xu8FJh6YtNwSu-11" value="0.33" style="connectable=0;recursiveResize=0;strokeColor=inherit;fillColor=none;align=center;whiteSpace=wrap;html=1;" vertex="1" parent="Rt8_4y5xu8FJh6YtNwSu-9">
          <mxGeometry x="480" width="200" height="44" as="geometry">
            <mxRectangle width="200" height="44" as="alternateBounds" />
          </mxGeometry>
        </mxCell>
        <mxCell id="Rt8_4y5xu8FJh6YtNwSu-12" style="connectable=0;recursiveResize=0;strokeColor=inherit;fillColor=none;align=center;whiteSpace=wrap;html=1;" vertex="1" parent="Rt8_4y5xu8FJh6YtNwSu-9">
          <mxGeometry x="680" width="161" height="44" as="geometry">
            <mxRectangle width="161" height="44" as="alternateBounds" />
          </mxGeometry>
        </mxCell>
        <mxCell id="Rt8_4y5xu8FJh6YtNwSu-13" style="shape=tableRow;horizontal=0;startSize=0;swimlaneHead=0;swimlaneBody=0;top=0;left=0;bottom=0;right=0;dropTarget=0;collapsible=0;recursiveResize=0;expand=0;fontStyle=0;fillColor=none;strokeColor=inherit;align=center;" vertex="1" parent="2i5CHcdiQAOYQLzf8pTI-1">
          <mxGeometry y="305" width="841" height="44" as="geometry" />
        </mxCell>
        <mxCell id="Rt8_4y5xu8FJh6YtNwSu-14" value="&lt;span style=&quot;white-space: pre;&quot;&gt;&#x9;&lt;/span&gt;3.3.1 USER selects &quot;ACCEPT&quot;" style="connectable=0;recursiveResize=0;strokeColor=inherit;fillColor=none;align=left;whiteSpace=wrap;html=1;labelPosition=center;verticalLabelPosition=middle;verticalAlign=middle;" vertex="1" parent="Rt8_4y5xu8FJh6YtNwSu-13">
          <mxGeometry width="480" height="44" as="geometry">
            <mxRectangle width="480" height="44" as="alternateBounds" />
          </mxGeometry>
        </mxCell>
        <mxCell id="Rt8_4y5xu8FJh6YtNwSu-15" value="0.33 x 1 x 1" style="connectable=0;recursiveResize=0;strokeColor=inherit;fillColor=none;align=center;whiteSpace=wrap;html=1;" vertex="1" parent="Rt8_4y5xu8FJh6YtNwSu-13">
          <mxGeometry x="480" width="200" height="44" as="geometry">
            <mxRectangle width="200" height="44" as="alternateBounds" />
          </mxGeometry>
        </mxCell>
        <mxCell id="Rt8_4y5xu8FJh6YtNwSu-16" value="0.33" style="connectable=0;recursiveResize=0;strokeColor=inherit;fillColor=none;align=center;whiteSpace=wrap;html=1;" vertex="1" parent="Rt8_4y5xu8FJh6YtNwSu-13">
          <mxGeometry x="680" width="161" height="44" as="geometry">
            <mxRectangle width="161" height="44" as="alternateBounds" />
          </mxGeometry>
        </mxCell>
        <mxCell id="2i5CHcdiQAOYQLzf8pTI-34" style="shape=tableRow;horizontal=0;startSize=0;swimlaneHead=0;swimlaneBody=0;top=0;left=0;bottom=0;right=0;dropTarget=0;collapsible=0;recursiveResize=0;expand=0;fontStyle=0;fillColor=none;strokeColor=inherit;align=center;" parent="2i5CHcdiQAOYQLzf8pTI-1" vertex="1">
          <mxGeometry y="349" width="841" height="44" as="geometry" />
        </mxCell>
        <mxCell id="2i5CHcdiQAOYQLzf8pTI-35" value="&lt;span style=&quot;white-space: pre;&quot;&gt;&#x9;&lt;/span&gt;4&amp;nbsp;USER closes check coverage window&amp;nbsp;" style="connectable=0;recursiveResize=0;strokeColor=inherit;fillColor=none;align=left;whiteSpace=wrap;html=1;labelPosition=center;verticalLabelPosition=middle;verticalAlign=middle;" parent="2i5CHcdiQAOYQLzf8pTI-34" vertex="1">
          <mxGeometry width="480" height="44" as="geometry">
            <mxRectangle width="480" height="44" as="alternateBounds" />
          </mxGeometry>
        </mxCell>
        <mxCell id="2i5CHcdiQAOYQLzf8pTI-36" value="1 x 1 x 1" style="connectable=0;recursiveResize=0;strokeColor=inherit;fillColor=none;align=center;whiteSpace=wrap;html=1;" parent="2i5CHcdiQAOYQLzf8pTI-34" vertex="1">
          <mxGeometry x="480" width="200" height="44" as="geometry">
            <mxRectangle width="200" height="44" as="alternateBounds" />
          </mxGeometry>
        </mxCell>
        <mxCell id="2i5CHcdiQAOYQLzf8pTI-37" value="1" style="connectable=0;recursiveResize=0;strokeColor=inherit;fillColor=none;align=center;whiteSpace=wrap;html=1;" parent="2i5CHcdiQAOYQLzf8pTI-34" vertex="1">
          <mxGeometry x="680" width="161" height="44" as="geometry">
            <mxRectangle width="161" height="44" as="alternateBounds" />
          </mxGeometry>
        </mxCell>
        <mxCell id="2i5CHcdiQAOYQLzf8pTI-38" style="shape=tableRow;horizontal=0;startSize=0;swimlaneHead=0;swimlaneBody=0;top=0;left=0;bottom=0;right=0;dropTarget=0;collapsible=0;recursiveResize=0;expand=0;fontStyle=0;fillColor=none;strokeColor=inherit;align=center;" parent="2i5CHcdiQAOYQLzf8pTI-1" vertex="1">
          <mxGeometry y="393" width="841" height="44" as="geometry" />
        </mxCell>
        <mxCell id="2i5CHcdiQAOYQLzf8pTI-39" style="connectable=0;recursiveResize=0;strokeColor=inherit;fillColor=none;align=left;whiteSpace=wrap;html=1;labelPosition=center;verticalLabelPosition=middle;verticalAlign=middle;" parent="2i5CHcdiQAOYQLzf8pTI-38" vertex="1">
          <mxGeometry width="480" height="44" as="geometry">
            <mxRectangle width="480" height="44" as="alternateBounds" />
          </mxGeometry>
        </mxCell>
        <mxCell id="2i5CHcdiQAOYQLzf8pTI-40" value="&lt;span style=&quot;font-weight: 700;&quot;&gt;HUMAN TASK COST&lt;/span&gt;" style="connectable=0;recursiveResize=0;strokeColor=inherit;fillColor=none;align=center;whiteSpace=wrap;html=1;" parent="2i5CHcdiQAOYQLzf8pTI-38" vertex="1">
          <mxGeometry x="480" width="200" height="44" as="geometry">
            <mxRectangle width="200" height="44" as="alternateBounds" />
          </mxGeometry>
        </mxCell>
        <mxCell id="2i5CHcdiQAOYQLzf8pTI-41" value="7" style="connectable=0;recursiveResize=0;strokeColor=inherit;fillColor=none;align=center;whiteSpace=wrap;html=1;fontStyle=1" parent="2i5CHcdiQAOYQLzf8pTI-38" vertex="1">
          <mxGeometry x="680" width="161" height="44" as="geometry">
            <mxRectangle width="161" height="44" as="alternateBounds" />
          </mxGeometry>
        </mxCell>
      </root>
    </mxGraphModel>
  </diagram>
</mxfile>
